<?xml version="1.0" encoding="utf-8"?>
<!-- Generator: Adobe Illustrator 23.0.1, SVG Export Plug-In . SVG Version: 6.00 Build 0)  -->
<svg xmlns="http://www.w3.org/2000/svg" xmlns:xlink="http://www.w3.org/1999/xlink" version="1.1" id="Layer_1" x="0px" y="0px" viewBox="0 0 50 60" style="enable-background:new 0 0 50 60;" xml:space="preserve" width="512" height="512">
<style type="text/css">
	.st0{fill:#4D657C;}
	.st1{fill:#7383BF;}
	.st2{fill:#EAEFF0;}
	.st3{fill:#B8BEC3;}
	.st4{fill:#DD352E;}
	.st5{fill:#EBBA16;}
	.st6{fill:#23A24D;}
	.st7{fill:#4D007E;}
</style>
<g id="_x34_0-Phone_Browser">
	<polygon class="st0" points="1,53 33,53 33,38 33,12 33,7 1,7  "/>
	<circle class="st1" cx="33" cy="30" r="16"/>
	<path class="st2" d="M33,9H1V3.5C1,2.1,2.1,1,3.5,1h26.9C31.9,1,33,2.1,33,3.5V9z"/>
	<path class="st2" d="M30.5,59H3.5C2.1,59,1,57.9,1,56.5V51h32v5.5C33,57.9,31.9,59,30.5,59z"/>
	<circle class="st3" cx="17" cy="55" r="4"/>
	<rect x="6" y="27" class="st4" width="6" height="6"/>
	<rect x="6" y="15" class="st5" width="6" height="6"/>
	<rect x="6" y="39" class="st6" width="6" height="6"/>
	<path class="st7" d="M33,10H1c-0.6,0-1-0.4-1-1V3.5C0,1.6,1.6,0,3.5,0h26.9c2,0,3.5,1.6,3.5,3.5V9C34,9.6,33.6,10,33,10z M2,8h30   V3.5C32,2.7,31.3,2,30.5,2H3.5C2.7,2,2,2.7,2,3.5V8z"/>
	<path class="st7" d="M30.5,60H3.5c-2,0-3.5-1.6-3.5-3.5V51c0-0.6,0.4-1,1-1h32c0.6,0,1,0.4,1,1v5.5C34,58.4,32.4,60,30.5,60z M2,52   v4.5C2,57.3,2.7,58,3.5,58h26.9c0.9,0,1.5-0.7,1.5-1.5V52H2z"/>
	<path class="st7" d="M17,60c-2.8,0-5-2.2-5-5s2.2-5,5-5s5,2.2,5,5S19.8,60,17,60z M17,52c-1.7,0-3,1.3-3,3s1.3,3,3,3s3-1.3,3-3   S18.7,52,17,52z"/>
	<path class="st7" d="M17,6h-6c-0.6,0-1-0.4-1-1s0.4-1,1-1h6c0.6,0,1,0.4,1,1S17.6,6,17,6z"/>
	<path class="st7" d="M23,6h-1c-0.6,0-1-0.4-1-1s0.4-1,1-1h1c0.6,0,1,0.4,1,1S23.6,6,23,6z"/>
	<path class="st7" d="M33,47c-9.4,0-17-7.6-17-17s7.6-17,17-17s17,7.6,17,17S42.4,47,33,47z M33,15c-8.3,0-15,6.7-15,15   s6.7,15,15,15s15-6.7,15-15S41.3,15,33,15z"/>
	<path class="st7" d="M33,47c-5,0-9-7.5-9-17s4-17,9-17s9,7.5,9,17S38,47,33,47z M33,15c-3.8,0-7,6.9-7,15s3.2,15,7,15s7-6.9,7-15   S36.8,15,33,15z"/>
	<path class="st7" d="M49,31H17c-0.6,0-1-0.4-1-1s0.4-1,1-1h32c0.6,0,1,0.4,1,1S49.6,31,49,31z"/>
	<path class="st7" d="M33,47c-0.6,0-1-0.4-1-1V14c0-0.6,0.4-1,1-1s1,0.4,1,1v32C34,46.6,33.6,47,33,47z"/>
	<path class="st7" d="M33,25c-4.8,0-9.4-1.6-12.9-4.5c-0.2-0.2-0.3-0.4-0.4-0.7c0-0.3,0.1-0.5,0.2-0.7c3.2-3.9,8-6.1,13-6.1   s9.8,2.2,13,6.1c0.2,0.2,0.3,0.5,0.2,0.7c0,0.3-0.2,0.5-0.4,0.7C42.4,23.4,37.8,25,33,25z M22.2,19.6c3,2.2,6.8,3.4,10.8,3.4   s7.7-1.2,10.8-3.4C41,16.7,37.1,15,33,15S25,16.7,22.2,19.6z"/>
	<path class="st7" d="M33,47c-5,0-9.8-2.2-13-6.1c-0.2-0.2-0.3-0.5-0.2-0.7c0-0.3,0.2-0.5,0.4-0.7C23.6,36.6,28.2,35,33,35   s9.4,1.6,12.9,4.5c0.2,0.2,0.3,0.4,0.4,0.7c0,0.3-0.1,0.5-0.2,0.7C42.8,44.8,38,47,33,47z M22.2,40.4C25,43.3,28.9,45,33,45   c4.1,0,8-1.7,10.8-4.6c-3-2.2-6.8-3.4-10.8-3.4C29.1,37,25.3,38.2,22.2,40.4z"/>
	<path class="st7" d="M33,52H1c-0.6,0-1-0.4-1-1V9c0-0.6,0.4-1,1-1h32c0.6,0,1,0.4,1,1v5c0,0.6-0.4,1-1,1c-8.3,0-15,6.7-15,15   s6.7,15,15,15c0.6,0,1,0.4,1,1v5C34,51.6,33.6,52,33,52z M2,50h30v-3c-8.9-0.5-16-7.9-16-17s7.1-16.5,16-17v-3H2V50z"/>
	<path class="st7" d="M12,34H6c-0.6,0-1-0.4-1-1v-6c0-0.6,0.4-1,1-1h6c0.6,0,1,0.4,1,1v6C13,33.6,12.6,34,12,34z M7,32h4v-4H7V32z"/>
	<path class="st7" d="M12,22H6c-0.6,0-1-0.4-1-1v-6c0-0.6,0.4-1,1-1h6c0.6,0,1,0.4,1,1v6C13,21.6,12.6,22,12,22z M7,20h4v-4H7V20z"/>
	<path class="st7" d="M12,46H6c-0.6,0-1-0.4-1-1v-6c0-0.6,0.4-1,1-1h6c0.6,0,1,0.4,1,1v6C13,45.6,12.6,46,12,46z M7,44h4v-4H7V44z"/>
</g>
</svg>
