<?xml version="1.0" encoding="UTF-8"?>
<svg xmlns="http://www.w3.org/2000/svg" xmlns:xlink="http://www.w3.org/1999/xlink" viewBox="0 0 64 64" version="1.1" width="128px" height="128px">
<g id="surface1">
<path style=" fill:#ED7899;" d="M 13.660156 7.398438 C 16.976563 5.972656 20.523438 5.160156 24.128906 5 C 25.703125 4.996094 27.269531 5.167969 28.800781 5.519531 C 31.078125 6.25 33.269531 7.234375 35.328125 8.449219 L 29.710938 27.570313 C 26.480469 25.304688 22.65625 24.039063 18.710938 23.929688 C 15.136719 24.027344 11.609375 24.769531 8.300781 26.121094 Z "/>
<path style=" fill:#F283A5;" d="M 28.800781 5.519531 C 27.269531 5.167969 25.703125 4.996094 24.128906 5 C 20.523438 5.160156 16.976563 5.972656 13.660156 7.398438 L 13.140625 9.210938 C 12.964844 9.777344 13.117188 10.394531 13.539063 10.8125 C 13.957031 11.230469 14.574219 11.382813 15.140625 11.210938 C 17.40625 10.496094 19.761719 10.09375 22.140625 10.019531 C 23.710938 10.015625 25.277344 10.1875 26.808594 10.539063 C 29.089844 11.269531 31.277344 12.253906 33.339844 13.46875 L 29.261719 27.289063 L 29.710938 27.570313 L 35.328125 8.449219 C 33.269531 7.234375 31.078125 6.25 28.800781 5.519531 Z "/>
<path style=" fill:#F9E3AE;" d="M 55.570313 39.269531 C 52.300781 40.367188 48.878906 40.953125 45.429688 41 C 41.003906 41.097656 36.660156 39.8125 33 37.320313 L 27.511719 56.25 C 29.128906 57.179688 34.601563 60.109375 38.78125 60.109375 C 42.761719 59.976563 46.683594 59.082031 50.328125 57.46875 Z "/>
<path style=" fill:#85CBF8;" d="M 22.449219 53.261719 C 23.839844 48.570313 27.171875 37.261719 28.171875 33.839844 C 27.449219 33.398438 26.710938 32.960938 25.960938 32.558594 C 23.394531 31.164063 20.53125 30.402344 17.609375 30.328125 C 17.25 30.328125 16.890625 30.328125 16.519531 30.328125 C 13.632813 30.601563 10.792969 31.226563 8.058594 32.191406 C 7.53125 32.378906 6.988281 32.589844 6.441406 32.808594 L 1 51.609375 C 4.210938 50.355469 7.621094 49.675781 11.070313 49.609375 C 15.148438 49.671875 19.113281 50.957031 22.449219 53.300781 Z "/>
<path style=" fill:#F6D397;" d="M 51.339844 51.46875 C 47.695313 53.082031 43.773438 53.976563 39.789063 54.109375 C 36.039063 54.109375 31.269531 51.761719 29.148438 50.601563 L 27.519531 56.25 C 29.140625 57.179688 34.609375 60.109375 38.789063 60.109375 C 42.773438 59.976563 46.695313 59.082031 50.339844 57.46875 L 55.570313 39.269531 L 54.78125 39.488281 Z "/>
<path style=" fill:#6FC6F0;" d="M 23.449219 47.261719 C 20.113281 44.914063 16.148438 43.628906 12.070313 43.570313 C 8.910156 43.636719 5.785156 44.230469 2.820313 45.328125 L 1 51.609375 C 4.210938 50.355469 7.621094 49.675781 11.070313 49.609375 C 15.148438 49.671875 19.113281 50.957031 22.449219 53.300781 C 23.839844 48.609375 27.171875 37.300781 28.171875 33.878906 L 27.519531 33.5 C 26.140625 38.148438 24.371094 44.148438 23.449219 47.261719 Z "/>
<path style=" fill:#72CAAF;" d="M 63 13.640625 C 59.703125 14.96875 56.191406 15.671875 52.640625 15.71875 C 48.257813 15.777344 43.964844 14.476563 40.351563 12 L 34.78125 31.140625 C 38.34375 33.480469 42.515625 34.734375 46.78125 34.75 C 50.453125 34.695313 54.074219 33.855469 57.398438 32.289063 L 57.398438 32.160156 L 57.628906 32.109375 Z "/>
<path style=" fill:#82D8BB;" d="M 39.351563 17 C 42.964844 19.492188 47.261719 20.804688 51.648438 20.761719 C 55.015625 20.714844 58.347656 20.078125 61.488281 18.871094 L 63 13.640625 C 59.703125 14.96875 56.191406 15.671875 52.640625 15.71875 C 48.257813 15.777344 43.964844 14.476563 40.351563 12 L 34.78125 31.140625 L 35.171875 31.371094 Z "/>
<path style=" fill:#8D6C9F;" d="M 28.691406 33 C 27.980469 32.570313 27.210938 32.109375 26.410156 31.679688 C 23.703125 30.214844 20.6875 29.410156 17.609375 29.339844 C 17.21875 29.339844 16.828125 29.339844 16.441406 29.339844 C 13.464844 29.621094 10.539063 30.265625 7.71875 31.261719 C 7.179688 31.460938 6.628906 31.660156 6.058594 31.890625 C 5.773438 32.003906 5.554688 32.242188 5.46875 32.539063 L 0 51.328125 C -0.109375 51.695313 0 52.085938 0.277344 52.34375 C 0.554688 52.605469 0.953125 52.683594 1.308594 52.550781 C 4.40625 51.3125 7.699219 50.636719 11.03125 50.550781 C 14.929688 50.617188 18.71875 51.855469 21.910156 54.101563 C 22.175781 54.269531 22.503906 54.304688 22.800781 54.195313 C 23.09375 54.085938 23.320313 53.84375 23.410156 53.539063 C 24.800781 48.851563 28.128906 37.539063 29.128906 34.121094 C 29.25 33.691406 29.070313 33.234375 28.691406 33 Z M 21.859375 51.71875 C 18.628906 49.683594 14.890625 48.585938 11.070313 48.558594 C 8.15625 48.59375 5.265625 49.078125 2.5 50 L 7.261719 33.589844 L 8.390625 33.171875 C 11.046875 32.234375 13.804688 31.625 16.609375 31.359375 C 16.949219 31.359375 17.28125 31.359375 17.609375 31.359375 C 20.363281 31.429688 23.058594 32.152344 25.480469 33.46875 C 25.988281 33.75 26.480469 34.039063 26.988281 34.328125 C 25.898438 38 23.300781 46.871094 21.859375 51.71875 Z "/>
<path style=" fill:#8D6C9F;" d="M 8.660156 27.050781 C 11.859375 25.742188 15.265625 25.019531 18.71875 24.921875 C 22.472656 25.039063 26.109375 26.25 29.179688 28.410156 C 29.339844 28.515625 29.527344 28.570313 29.71875 28.570313 C 29.839844 28.570313 29.957031 28.550781 30.070313 28.511719 C 30.363281 28.402344 30.589844 28.160156 30.679688 27.859375 L 36.289063 8.730469 C 36.421875 8.285156 36.230469 7.8125 35.828125 7.578125 C 33.683594 6.328125 31.402344 5.324219 29.03125 4.578125 C 27.417969 4.199219 25.765625 4.003906 24.109375 4 C 20.382813 4.164063 16.71875 5 13.289063 6.46875 C 13.003906 6.585938 12.785156 6.824219 12.699219 7.121094 L 7.339844 25.839844 C 7.238281 26.203125 7.347656 26.589844 7.625 26.847656 C 7.898438 27.101563 8.296875 27.179688 8.648438 27.050781 Z M 14.488281 8.148438 C 17.550781 6.875 20.816406 6.148438 24.128906 6 C 25.621094 5.996094 27.105469 6.160156 28.558594 6.488281 C 30.507813 7.097656 32.378906 7.917969 34.148438 8.929688 L 33.320313 11.761719 C 31.628906 10.839844 29.847656 10.097656 28 9.550781 C 26.394531 9.183594 24.753906 8.996094 23.109375 9 C 20.621094 9.074219 18.15625 9.492188 15.78125 10.238281 C 15.25 10.398438 14.949219 10.960938 15.109375 11.488281 C 15.269531 12.019531 15.828125 12.320313 16.359375 12.160156 C 18.550781 11.464844 20.832031 11.074219 23.128906 11 C 24.621094 10.996094 26.105469 11.160156 27.558594 11.488281 C 29.363281 12.050781 31.101563 12.796875 32.75 13.71875 L 29.121094 26 C 26 24.035156 22.40625 22.960938 18.71875 22.890625 C 15.675781 22.945313 12.664063 23.484375 9.789063 24.488281 Z "/>
<path style=" fill:#8D6C9F;" d="M 63.679688 12.898438 C 63.410156 12.65625 63.023438 12.578125 62.679688 12.699219 C 59.5 13.976563 56.109375 14.65625 52.679688 14.699219 C 48.496094 14.738281 44.398438 13.488281 40.949219 11.121094 C 40.6875 10.9375 40.351563 10.890625 40.046875 11 C 39.742188 11.105469 39.511719 11.351563 39.421875 11.660156 L 33.820313 30.859375 C 33.6875 31.292969 33.859375 31.757813 34.238281 32 C 37.96875 34.441406 42.324219 35.746094 46.78125 35.761719 C 50.585938 35.703125 54.335938 34.839844 57.78125 33.21875 C 58.109375 33.027344 58.371094 32.742188 58.539063 32.398438 L 64 13.921875 C 64.097656 13.546875 63.976563 13.148438 63.679688 12.898438 Z M 56.789063 31.359375 C 56.714844 31.417969 56.648438 31.484375 56.589844 31.558594 C 49.269531 34.738281 42.199219 34.421875 36 30.691406 L 39.601563 18.289063 C 42.363281 20.042969 45.480469 21.152344 48.730469 21.539063 L 48.851563 21.539063 C 49.402344 21.574219 49.875 21.152344 49.910156 20.601563 C 49.941406 20.046875 49.523438 19.574219 48.96875 19.539063 C 45.820313 19.164063 42.808594 18.042969 40.179688 16.269531 L 40.980469 13.519531 C 44.515625 15.636719 48.566406 16.738281 52.691406 16.710938 C 55.699219 16.683594 58.6875 16.183594 61.539063 15.230469 Z "/>
<path style=" fill:#8D6C9F;" d="M 55.269531 38.320313 C 52.097656 39.386719 48.777344 39.953125 45.429688 40 C 41.207031 40.09375 37.058594 38.871094 33.558594 36.5 C 33.300781 36.300781 32.960938 36.246094 32.648438 36.34375 C 32.339844 36.445313 32.097656 36.6875 32 37 L 26.550781 56 C 26.433594 56.433594 26.617188 56.890625 27 57.121094 C 29.109375 58.320313 34.46875 61.121094 38.769531 61.121094 C 42.890625 60.988281 46.949219 60.066406 50.71875 58.398438 C 51.007813 58.285156 51.222656 58.046875 51.308594 57.75 L 56.539063 39.550781 C 56.644531 39.195313 56.542969 38.808594 56.277344 38.550781 C 56.007813 38.292969 55.621094 38.207031 55.269531 38.320313 Z M 51 51.558594 L 51 51 C 51 50.449219 50.550781 50 50 50 C 49.449219 50 49 50.449219 49 51 L 49 53 C 49 53.550781 49.449219 54 50 54 C 50.109375 53.996094 50.21875 53.976563 50.320313 53.941406 L 49.519531 56.730469 C 46.125 58.191406 42.484375 59 38.789063 59.121094 C 35.320313 59.121094 30.789063 56.898438 28.699219 55.769531 L 29.421875 53.289063 C 29.589844 53.421875 29.796875 53.496094 30.011719 53.5 C 30.5625 53.5 31.011719 53.050781 31.011719 52.5 L 31.011719 50.5 C 31.003906 50.136719 30.800781 49.800781 30.480469 49.628906 L 33.589844 38.890625 C 37.179688 40.988281 41.273438 42.0625 45.429688 42 C 48.363281 41.972656 51.277344 41.554688 54.101563 40.761719 Z "/>
<path style=" fill:#8D6C9F;" d="M 52.351563 20.730469 C 52.386719 21.253906 52.824219 21.660156 53.351563 21.660156 L 53.421875 21.660156 C 54.386719 21.589844 55.347656 21.46875 56.300781 21.300781 C 56.851563 21.203125 57.222656 20.675781 57.125 20.125 C 57.027344 19.574219 56.503906 19.203125 55.949219 19.300781 C 55.066406 19.457031 54.175781 19.566406 53.28125 19.628906 C 53.007813 19.648438 52.757813 19.773438 52.582031 19.980469 C 52.40625 20.191406 52.320313 20.460938 52.351563 20.730469 Z "/>
<path style=" fill:#8D6C9F;" d="M 6 42.25 C 5.449219 42.25 5 42.699219 5 43.25 L 5 45.25 C 5 45.800781 5.449219 46.25 6 46.25 C 6.550781 46.25 7 45.800781 7 45.25 L 7 43.25 C 7 42.699219 6.550781 42.25 6 42.25 Z "/>
<path style=" fill:#8D6C9F;" d="M 11 41.75 C 10.449219 41.75 10 42.199219 10 42.75 L 10 44.75 C 10 45.300781 10.449219 45.75 11 45.75 C 11.550781 45.75 12 45.300781 12 44.75 L 12 42.75 C 12 42.199219 11.550781 41.75 11 41.75 Z "/>
<path style=" fill:#8D6C9F;" d="M 16 42.25 C 15.449219 42.25 15 42.699219 15 43.25 L 15 45.25 C 15 45.800781 15.449219 46.25 16 46.25 C 16.550781 46.25 17 45.800781 17 45.25 L 17 43.25 C 17 42.699219 16.550781 42.25 16 42.25 Z "/>
<path style=" fill:#8D6C9F;" d="M 21 44.25 C 20.449219 44.25 20 44.699219 20 45.25 L 20 47.25 C 20 47.800781 20.449219 48.25 21 48.25 C 21.550781 48.25 22 47.800781 22 47.25 L 22 45.25 C 22 44.699219 21.550781 44.25 21 44.25 Z "/>
<path style=" fill:#8D6C9F;" d="M 35 51.5 C 34.449219 51.5 34 51.949219 34 52.5 L 34 54.5 C 34 55.050781 34.449219 55.5 35 55.5 C 35.550781 55.5 36 55.050781 36 54.5 L 36 52.5 C 36 51.949219 35.550781 51.5 35 51.5 Z "/>
<path style=" fill:#8D6C9F;" d="M 40 52.25 C 39.449219 52.25 39 52.699219 39 53.25 L 39 55.25 C 39 55.800781 39.449219 56.25 40 56.25 C 40.550781 56.25 41 55.800781 41 55.25 L 41 53.25 C 41 52.699219 40.550781 52.25 40 52.25 Z "/>
<path style=" fill:#8D6C9F;" d="M 44 52.5 L 44 54.5 C 44 55.050781 44.449219 55.5 45 55.5 C 45.550781 55.5 46 55.050781 46 54.5 L 46 52.5 C 46 51.949219 45.550781 51.5 45 51.5 C 44.449219 51.5 44 51.949219 44 52.5 Z "/>
</g>
</svg>
